# xmcd CD database file
#
# Track frame offsets:
#	150
#	20642
#	44435
#	61370
#	84260
#	110050
#	132392
#	153220
#	166502
#	187257
#
# Disc length: 3120 seconds
#
# Revision: 9
# Processed by: cddbd v1.5.2PL0 Copyright (c) Steve Scherf et al.
# Submitted via: CDex 1.51
#
DISCID=800c2e0a
DTITLE=Neil Young - Harvest Moon
DYEAR=1992
DGENRE=Rock
TTITLE0=Unknown Legend
TTITLE1=From Hank To Hendrix
TTITLE2=You And Me
TTITLE3=Harvest Moon
TTITLE4=War Of Man
TTITLE5=One Of These Days
TTITLE6=Such A Woman
TTITLE7=Old King
TTITLE8=Dreamin' Man
TTITLE9=Natural Beauty
EXTD=Album Notes \n\n \n\nQ Magazine (12/99, p.74) - Included in Q Magazine's "90 Best Albums Of The 1990s." Personnel: Neil Young (vocals, guitar, harmonica) - Kenny Buttrey, Tim Drummond, Ben Keith,Spooner Oldham, Astrid Young, Larry Cragg. YEAR: 1992
EXTT0=
EXTT1=
EXTT2=
EXTT3=
EXTT4=
EXTT5=
EXTT6=
EXTT7=
EXTT8=
EXTT9=
PLAYORDER=
